<svg id="Layer_1" data-name="Layer 1" xmlns="http://www.w3.org/2000/svg" viewBox="0 0 149.57 220.2"><defs><style>.cls-1{fill:red;}</style></defs><title>chair-red</title><path class="cls-1" d="M205.35,217.15l-19-98.47,13.79-75.54c3.3-17.65-29.56-33.46-69.39-33.46h0C90.93,9.68,61.56,27,64.13,43.87l11,74.81h0l-19,98.47a10.7,10.7,0,0,0,10.51,12.73H194.84A10.71,10.71,0,0,0,205.35,217.15ZM192.06,33.74c2.41,2.91,3.33,5.66,2.81,8.43l-13,71.15h-28.8l10.72-94.27C177.74,22.7,187.58,28.35,192.06,33.74ZM130.76,15a135,135,0,0,1,27.79,2.77l-10.86,95.51H115l-12.16-95.1A118.33,118.33,0,0,1,130.76,15Zm-61.33,28c-.46-3,.74-6.22,3.57-9.51,4.43-5.16,13-10.34,24.65-13.9l12,93.67H79.79Z" transform="translate(-55.97 -9.68)"/></svg>